# xmcd
#
# Track frame offsets:
#	150
#	15229
#	46413
#	74239
#	107445
#	121697
#	138017
#	166516
#	211705
#	240548
#	255651
#	286583
#	306795
#
# Disc length: 4476 seconds
#
# Revision: 1
# Processed by: cddbd v1.5.2PL0 Copyright (c) Steve Scherf et al.
# Submitted via: audiograbber 1.83.01
#
DISCID=9c117a0d
DTITLE=Grateful Dead - 72-06-17A Hollywood Bowl, Hollywood CA
DYEAR=1900
DGENRE=
TTITLE0=Promised Land
TTITLE1=Sugaree
TTITLE2=Black Throated Wind
TTITLE3=Tennessee Jed
TTITLE4=Me and My Uncle
TTITLE5=China Cat Sunflower
TTITLE6=I Know You Rider
TTITLE7=Playing In The Band
TTITLE8=Loser
TTITLE9=BIODTL
TTITLE10=Stella Blue
TTITLE11=El Paso
TTITLE12=Casey Jones
EXTD=
EXTT0=
EXTT1=
EXTT2=
EXTT3=
EXTT4=
EXTT5=
EXTT6=
EXTT7=
EXTT8=
EXTT9=
EXTT10=
EXTT11=
EXTT12=
PLAYORDER=
